<mxfile host="app.diagrams.net" modified="2023-05-31T19:11:12.065Z" agent="Mozilla/5.0 (Windows NT 10.0; Win64; x64) AppleWebKit/537.36 (KHTML, like Gecko) Chrome/114.0.0.0 Safari/537.36 OPR/100.0.0.0 (Edition developer)" etag="zhtLW1h3Z_0PSV8FAELq" version="21.3.5" type="device">
  <diagram name="Page-1" id="uzh2dEsod70JYPXcmRpu">
    <mxGraphModel dx="1389" dy="703" grid="0" gridSize="10" guides="1" tooltips="1" connect="1" arrows="1" fold="1" page="1" pageScale="1" pageWidth="827" pageHeight="1169" math="0" shadow="0">
      <root>
        <mxCell id="0" />
        <mxCell id="1" parent="0" />
        <mxCell id="is-SOufdkI4g5pvdqPhS-9" style="edgeStyle=orthogonalEdgeStyle;rounded=0;orthogonalLoop=1;jettySize=auto;html=1;exitX=0.5;exitY=1;exitDx=0;exitDy=0;entryX=0.5;entryY=0;entryDx=0;entryDy=0;" parent="1" source="is-SOufdkI4g5pvdqPhS-3" target="is-SOufdkI4g5pvdqPhS-5" edge="1">
          <mxGeometry relative="1" as="geometry" />
        </mxCell>
        <mxCell id="is-SOufdkI4g5pvdqPhS-3" value="REQUEST" style="rounded=1;whiteSpace=wrap;html=1;fillColor=#008a00;fontColor=#ffffff;strokeColor=#005700;" parent="1" vertex="1">
          <mxGeometry x="42.65" y="82" width="120" height="60" as="geometry" />
        </mxCell>
        <mxCell id="is-SOufdkI4g5pvdqPhS-16" style="edgeStyle=orthogonalEdgeStyle;rounded=0;orthogonalLoop=1;jettySize=auto;html=1;exitX=1;exitY=0.5;exitDx=0;exitDy=0;entryX=0;entryY=0.5;entryDx=0;entryDy=0;" parent="1" source="is-SOufdkI4g5pvdqPhS-5" target="is-SOufdkI4g5pvdqPhS-12" edge="1">
          <mxGeometry relative="1" as="geometry" />
        </mxCell>
        <mxCell id="iezwyZ3Eki5sNhV5wTou-1" style="edgeStyle=orthogonalEdgeStyle;rounded=0;orthogonalLoop=1;jettySize=auto;html=1;exitX=0.5;exitY=1;exitDx=0;exitDy=0;entryX=0.5;entryY=0;entryDx=0;entryDy=0;" edge="1" parent="1" source="is-SOufdkI4g5pvdqPhS-5" target="is-SOufdkI4g5pvdqPhS-10">
          <mxGeometry relative="1" as="geometry">
            <Array as="points">
              <mxPoint x="102.65" y="402" />
              <mxPoint x="102.65" y="402" />
            </Array>
          </mxGeometry>
        </mxCell>
        <mxCell id="is-SOufdkI4g5pvdqPhS-5" value="DeSerialization" style="rounded=1;whiteSpace=wrap;html=1;" parent="1" vertex="1">
          <mxGeometry x="42.65" y="162" width="120" height="60" as="geometry" />
        </mxCell>
        <mxCell id="is-SOufdkI4g5pvdqPhS-6" value="REQUEST" style="rounded=1;whiteSpace=wrap;html=1;fillColor=#008a00;fontColor=#ffffff;strokeColor=#005700;" parent="1" vertex="1">
          <mxGeometry x="334.04999999999995" y="752" width="120" height="60" as="geometry" />
        </mxCell>
        <mxCell id="is-SOufdkI4g5pvdqPhS-8" style="edgeStyle=orthogonalEdgeStyle;rounded=0;orthogonalLoop=1;jettySize=auto;html=1;exitX=0.5;exitY=1;exitDx=0;exitDy=0;entryX=0.5;entryY=0;entryDx=0;entryDy=0;" parent="1" source="is-SOufdkI4g5pvdqPhS-7" target="is-SOufdkI4g5pvdqPhS-6" edge="1">
          <mxGeometry relative="1" as="geometry" />
        </mxCell>
        <mxCell id="is-SOufdkI4g5pvdqPhS-7" value="Serialization" style="rounded=1;whiteSpace=wrap;html=1;" parent="1" vertex="1">
          <mxGeometry x="334.32" y="672" width="120" height="60" as="geometry" />
        </mxCell>
        <mxCell id="is-SOufdkI4g5pvdqPhS-13" style="edgeStyle=orthogonalEdgeStyle;rounded=0;orthogonalLoop=1;jettySize=auto;html=1;exitX=0.5;exitY=1;exitDx=0;exitDy=0;" parent="1" source="is-SOufdkI4g5pvdqPhS-10" target="is-SOufdkI4g5pvdqPhS-11" edge="1">
          <mxGeometry relative="1" as="geometry" />
        </mxCell>
        <mxCell id="is-SOufdkI4g5pvdqPhS-10" value="Adding Passanger&lt;br&gt;To DataBase" style="rounded=1;whiteSpace=wrap;html=1;" parent="1" vertex="1">
          <mxGeometry x="42.65" y="302" width="120" height="60" as="geometry" />
        </mxCell>
        <mxCell id="is-SOufdkI4g5pvdqPhS-25" style="edgeStyle=orthogonalEdgeStyle;rounded=0;orthogonalLoop=1;jettySize=auto;html=1;entryX=0;entryY=0.5;entryDx=0;entryDy=0;" parent="1" source="is-SOufdkI4g5pvdqPhS-11" target="is-SOufdkI4g5pvdqPhS-24" edge="1">
          <mxGeometry relative="1" as="geometry" />
        </mxCell>
        <mxCell id="is-SOufdkI4g5pvdqPhS-26" value="Taking Passenger ID" style="edgeLabel;html=1;align=center;verticalAlign=middle;resizable=0;points=[];" parent="is-SOufdkI4g5pvdqPhS-25" vertex="1" connectable="0">
          <mxGeometry x="0.1519" relative="1" as="geometry">
            <mxPoint as="offset" />
          </mxGeometry>
        </mxCell>
        <mxCell id="is-SOufdkI4g5pvdqPhS-11" value="" style="sketch=0;shadow=0;dashed=0;html=1;strokeColor=none;labelPosition=center;verticalLabelPosition=bottom;verticalAlign=top;outlineConnect=0;align=center;shape=mxgraph.office.databases.database_mini_3;fillColor=#2072B8;" parent="1" vertex="1">
          <mxGeometry x="71.95000000000002" y="402" width="61.4" height="100" as="geometry" />
        </mxCell>
        <mxCell id="is-SOufdkI4g5pvdqPhS-18" style="edgeStyle=orthogonalEdgeStyle;rounded=0;orthogonalLoop=1;jettySize=auto;html=1;exitX=1;exitY=0.5;exitDx=0;exitDy=0;" parent="1" source="is-SOufdkI4g5pvdqPhS-12" target="is-SOufdkI4g5pvdqPhS-17" edge="1">
          <mxGeometry relative="1" as="geometry">
            <Array as="points" />
          </mxGeometry>
        </mxCell>
        <mxCell id="is-SOufdkI4g5pvdqPhS-12" value="Searching tickets" style="rounded=1;whiteSpace=wrap;html=1;" parent="1" vertex="1">
          <mxGeometry x="202.65" y="162" width="120" height="60" as="geometry" />
        </mxCell>
        <mxCell id="iezwyZ3Eki5sNhV5wTou-5" style="edgeStyle=orthogonalEdgeStyle;rounded=0;orthogonalLoop=1;jettySize=auto;html=1;exitX=0.5;exitY=1;exitDx=0;exitDy=0;entryX=0.5;entryY=0;entryDx=0;entryDy=0;" edge="1" parent="1" source="is-SOufdkI4g5pvdqPhS-14" target="iezwyZ3Eki5sNhV5wTou-3">
          <mxGeometry relative="1" as="geometry" />
        </mxCell>
        <mxCell id="iezwyZ3Eki5sNhV5wTou-25" style="edgeStyle=orthogonalEdgeStyle;rounded=0;orthogonalLoop=1;jettySize=auto;html=1;exitX=1;exitY=0.5;exitDx=0;exitDy=0;entryX=0;entryY=0.5;entryDx=0;entryDy=0;" edge="1" parent="1" source="is-SOufdkI4g5pvdqPhS-14" target="iezwyZ3Eki5sNhV5wTou-4">
          <mxGeometry relative="1" as="geometry" />
        </mxCell>
        <mxCell id="is-SOufdkI4g5pvdqPhS-14" value="Direct Flight" style="rounded=1;whiteSpace=wrap;html=1;" parent="1" vertex="1">
          <mxGeometry x="333.34999999999997" y="262" width="120" height="60" as="geometry" />
        </mxCell>
        <mxCell id="is-SOufdkI4g5pvdqPhS-22" style="edgeStyle=orthogonalEdgeStyle;rounded=0;orthogonalLoop=1;jettySize=auto;html=1;entryX=0.5;entryY=0;entryDx=0;entryDy=0;" parent="1" source="is-SOufdkI4g5pvdqPhS-17" target="is-SOufdkI4g5pvdqPhS-14" edge="1">
          <mxGeometry relative="1" as="geometry" />
        </mxCell>
        <mxCell id="is-SOufdkI4g5pvdqPhS-17" value="" style="sketch=0;shadow=0;dashed=0;html=1;strokeColor=none;labelPosition=center;verticalLabelPosition=bottom;verticalAlign=top;outlineConnect=0;align=center;shape=mxgraph.office.databases.database_mini_3;fillColor=#2072B8;" parent="1" vertex="1">
          <mxGeometry x="362.65" y="142" width="61.4" height="100" as="geometry" />
        </mxCell>
        <mxCell id="is-SOufdkI4g5pvdqPhS-33" value="Adding Flight to Flight in DB" style="edgeStyle=orthogonalEdgeStyle;rounded=0;orthogonalLoop=1;jettySize=auto;html=1;exitX=0.5;exitY=1;exitDx=0;exitDy=0;" parent="1" source="is-SOufdkI4g5pvdqPhS-24" target="is-SOufdkI4g5pvdqPhS-32" edge="1">
          <mxGeometry relative="1" as="geometry" />
        </mxCell>
        <mxCell id="is-SOufdkI4g5pvdqPhS-24" value="Forming Ticket" style="rounded=1;whiteSpace=wrap;html=1;" parent="1" vertex="1">
          <mxGeometry x="334.32" y="422" width="120" height="60" as="geometry" />
        </mxCell>
        <mxCell id="is-SOufdkI4g5pvdqPhS-34" value="Returning Flight Request" style="edgeStyle=orthogonalEdgeStyle;rounded=0;orthogonalLoop=1;jettySize=auto;html=1;entryX=0.5;entryY=0;entryDx=0;entryDy=0;" parent="1" source="is-SOufdkI4g5pvdqPhS-32" target="is-SOufdkI4g5pvdqPhS-7" edge="1">
          <mxGeometry relative="1" as="geometry" />
        </mxCell>
        <mxCell id="is-SOufdkI4g5pvdqPhS-32" value="" style="sketch=0;shadow=0;dashed=0;html=1;strokeColor=none;labelPosition=center;verticalLabelPosition=bottom;verticalAlign=top;outlineConnect=0;align=center;shape=mxgraph.office.databases.database_mini_3;fillColor=#2072B8;" parent="1" vertex="1">
          <mxGeometry x="363.78999999999996" y="532" width="60.7" height="100" as="geometry" />
        </mxCell>
        <mxCell id="iezwyZ3Eki5sNhV5wTou-7" style="edgeStyle=orthogonalEdgeStyle;rounded=0;orthogonalLoop=1;jettySize=auto;html=1;exitX=0.5;exitY=1;exitDx=0;exitDy=0;entryX=0.5;entryY=0;entryDx=0;entryDy=0;" edge="1" parent="1" source="iezwyZ3Eki5sNhV5wTou-3" target="is-SOufdkI4g5pvdqPhS-24">
          <mxGeometry relative="1" as="geometry" />
        </mxCell>
        <mxCell id="iezwyZ3Eki5sNhV5wTou-3" value="YES" style="rhombus;whiteSpace=wrap;html=1;fillColor=#008a00;fontColor=#ffffff;strokeColor=#005700;" vertex="1" parent="1">
          <mxGeometry x="364.04999999999995" y="342" width="60" height="60" as="geometry" />
        </mxCell>
        <mxCell id="iezwyZ3Eki5sNhV5wTou-27" style="edgeStyle=orthogonalEdgeStyle;rounded=0;orthogonalLoop=1;jettySize=auto;html=1;exitX=1;exitY=0.5;exitDx=0;exitDy=0;entryX=0;entryY=0.5;entryDx=0;entryDy=0;" edge="1" parent="1" source="iezwyZ3Eki5sNhV5wTou-4" target="iezwyZ3Eki5sNhV5wTou-26">
          <mxGeometry relative="1" as="geometry" />
        </mxCell>
        <mxCell id="iezwyZ3Eki5sNhV5wTou-4" value="NO" style="rhombus;whiteSpace=wrap;html=1;fillColor=#a20025;fontColor=#ffffff;strokeColor=#6F0000;" vertex="1" parent="1">
          <mxGeometry x="472.65" y="262" width="60" height="60" as="geometry" />
        </mxCell>
        <mxCell id="iezwyZ3Eki5sNhV5wTou-29" style="edgeStyle=orthogonalEdgeStyle;rounded=0;orthogonalLoop=1;jettySize=auto;html=1;entryX=0.5;entryY=0;entryDx=0;entryDy=0;" edge="1" parent="1" source="iezwyZ3Eki5sNhV5wTou-9" target="iezwyZ3Eki5sNhV5wTou-11">
          <mxGeometry relative="1" as="geometry">
            <Array as="points">
              <mxPoint x="723.65" y="372" />
              <mxPoint x="722.65" y="402" />
            </Array>
          </mxGeometry>
        </mxCell>
        <mxCell id="iezwyZ3Eki5sNhV5wTou-9" value="" style="sketch=0;shadow=0;dashed=0;html=1;strokeColor=none;labelPosition=center;verticalLabelPosition=bottom;verticalAlign=top;outlineConnect=0;align=center;shape=mxgraph.office.databases.database_mini_3;fillColor=#2072B8;" vertex="1" parent="1">
          <mxGeometry x="692.65" y="242" width="61.4" height="100" as="geometry" />
        </mxCell>
        <mxCell id="iezwyZ3Eki5sNhV5wTou-30" style="edgeStyle=orthogonalEdgeStyle;rounded=0;orthogonalLoop=1;jettySize=auto;html=1;entryX=1;entryY=0.5;entryDx=0;entryDy=0;" edge="1" parent="1" source="iezwyZ3Eki5sNhV5wTou-11" target="iezwyZ3Eki5sNhV5wTou-13">
          <mxGeometry relative="1" as="geometry" />
        </mxCell>
        <mxCell id="iezwyZ3Eki5sNhV5wTou-32" style="edgeStyle=orthogonalEdgeStyle;rounded=0;orthogonalLoop=1;jettySize=auto;html=1;exitX=0.5;exitY=1;exitDx=0;exitDy=0;entryX=0.5;entryY=0;entryDx=0;entryDy=0;" edge="1" parent="1" source="iezwyZ3Eki5sNhV5wTou-11" target="iezwyZ3Eki5sNhV5wTou-14">
          <mxGeometry relative="1" as="geometry" />
        </mxCell>
        <mxCell id="iezwyZ3Eki5sNhV5wTou-11" value="Flight with a transfer" style="rounded=1;whiteSpace=wrap;html=1;" vertex="1" parent="1">
          <mxGeometry x="663.35" y="422" width="120" height="60" as="geometry" />
        </mxCell>
        <mxCell id="iezwyZ3Eki5sNhV5wTou-31" style="edgeStyle=orthogonalEdgeStyle;rounded=0;orthogonalLoop=1;jettySize=auto;html=1;entryX=1;entryY=0.5;entryDx=0;entryDy=0;" edge="1" parent="1" source="iezwyZ3Eki5sNhV5wTou-13" target="is-SOufdkI4g5pvdqPhS-24">
          <mxGeometry relative="1" as="geometry" />
        </mxCell>
        <mxCell id="iezwyZ3Eki5sNhV5wTou-13" value="YES" style="rhombus;whiteSpace=wrap;html=1;fillColor=#008a00;fontColor=#ffffff;strokeColor=#005700;" vertex="1" parent="1">
          <mxGeometry x="532.65" y="422" width="60" height="60" as="geometry" />
        </mxCell>
        <mxCell id="iezwyZ3Eki5sNhV5wTou-33" style="edgeStyle=orthogonalEdgeStyle;rounded=0;orthogonalLoop=1;jettySize=auto;html=1;exitX=0.5;exitY=1;exitDx=0;exitDy=0;entryX=0.5;entryY=0;entryDx=0;entryDy=0;" edge="1" parent="1" source="iezwyZ3Eki5sNhV5wTou-14" target="iezwyZ3Eki5sNhV5wTou-19">
          <mxGeometry relative="1" as="geometry" />
        </mxCell>
        <mxCell id="iezwyZ3Eki5sNhV5wTou-14" value="NO" style="rhombus;whiteSpace=wrap;html=1;fillColor=#a20025;fontColor=#ffffff;strokeColor=#6F0000;" vertex="1" parent="1">
          <mxGeometry x="692.6499999999999" y="502" width="60" height="60" as="geometry" />
        </mxCell>
        <mxCell id="iezwyZ3Eki5sNhV5wTou-19" value="Return Negative&lt;br&gt;REQUEST" style="rounded=1;whiteSpace=wrap;html=1;fillColor=#a20025;fontColor=#ffffff;strokeColor=#6F0000;" vertex="1" parent="1">
          <mxGeometry x="662.6499999999999" y="582" width="120" height="60" as="geometry" />
        </mxCell>
        <mxCell id="iezwyZ3Eki5sNhV5wTou-28" style="edgeStyle=orthogonalEdgeStyle;rounded=0;orthogonalLoop=1;jettySize=auto;html=1;exitX=1;exitY=0.5;exitDx=0;exitDy=0;" edge="1" parent="1" source="iezwyZ3Eki5sNhV5wTou-26" target="iezwyZ3Eki5sNhV5wTou-9">
          <mxGeometry relative="1" as="geometry" />
        </mxCell>
        <mxCell id="iezwyZ3Eki5sNhV5wTou-26" value="Searching Possible tickets" style="rounded=1;whiteSpace=wrap;html=1;" vertex="1" parent="1">
          <mxGeometry x="548.05" y="262" width="120" height="60" as="geometry" />
        </mxCell>
        <mxCell id="iezwyZ3Eki5sNhV5wTou-34" value="&lt;font style=&quot;font-size: 25px;&quot;&gt;&lt;b&gt;Program Architecture&lt;/b&gt;&lt;/font&gt;" style="rounded=0;whiteSpace=wrap;html=1;fillColor=#2072B8;fontColor=#ffffff;strokeColor=#001DBC;" vertex="1" parent="1">
          <mxGeometry width="826" height="68" as="geometry" />
        </mxCell>
      </root>
    </mxGraphModel>
  </diagram>
</mxfile>
